<svg width="158" height="48" viewBox="0 0 158 48" fill="none" xmlns="http://www.w3.org/2000/svg">
<path d="M64.598 21.5469H61.4872C61.4304 21.1444 61.3144 20.7869 61.1392 20.4744C60.964 20.1572 60.7391 19.8873 60.4645 19.6648C60.1899 19.4422 59.8726 19.2718 59.5128 19.1534C59.1577 19.035 58.7718 18.9759 58.3551 18.9759C57.6023 18.9759 56.9465 19.1629 56.3878 19.5369C55.8291 19.9062 55.3958 20.446 55.0881 21.1562C54.7803 21.8617 54.6264 22.7187 54.6264 23.7273C54.6264 24.7642 54.7803 25.6354 55.0881 26.3409C55.4006 27.0464 55.8362 27.5791 56.3949 27.9389C56.9536 28.2988 57.5999 28.4787 58.3338 28.4787C58.7457 28.4787 59.1269 28.4242 59.4773 28.3153C59.8324 28.2064 60.1473 28.0478 60.4219 27.8395C60.6965 27.6264 60.9238 27.3684 61.1037 27.0653C61.2884 26.7623 61.4162 26.4167 61.4872 26.0284L64.598 26.0426C64.5175 26.7102 64.3163 27.3542 63.9943 27.9744C63.6771 28.59 63.2486 29.1416 62.7088 29.6293C62.1738 30.1122 61.5346 30.4957 60.7912 30.7798C60.0526 31.0592 59.2169 31.1989 58.2841 31.1989C56.9867 31.1989 55.8267 30.9053 54.804 30.3182C53.786 29.7311 52.9811 28.8812 52.3892 27.7685C51.8021 26.6558 51.5085 25.3087 51.5085 23.7273C51.5085 22.1411 51.8068 20.7917 52.4034 19.679C53 18.5663 53.8097 17.7187 54.8324 17.1364C55.8551 16.5492 57.0057 16.2557 58.2841 16.2557C59.1269 16.2557 59.9081 16.3741 60.6278 16.6108C61.3523 16.8475 61.9938 17.1932 62.5526 17.6477C63.1113 18.0975 63.5658 18.6491 63.9162 19.3026C64.2713 19.956 64.4986 20.7041 64.598 21.5469ZM71.0754 31.2131C69.9722 31.2131 69.0181 30.9787 68.2132 30.5099C67.413 30.0365 66.7951 29.3783 66.3595 28.5355C65.9239 27.688 65.7061 26.7055 65.7061 25.5881C65.7061 24.4612 65.9239 23.4763 66.3595 22.6335C66.7951 21.786 67.413 21.1278 68.2132 20.6591C69.0181 20.1856 69.9722 19.9489 71.0754 19.9489C72.1786 19.9489 73.1304 20.1856 73.9305 20.6591C74.7355 21.1278 75.3557 21.786 75.7913 22.6335C76.2269 23.4763 76.4447 24.4612 76.4447 25.5881C76.4447 26.7055 76.2269 27.688 75.7913 28.5355C75.3557 29.3783 74.7355 30.0365 73.9305 30.5099C73.1304 30.9787 72.1786 31.2131 71.0754 31.2131ZM71.0896 28.8693C71.5915 28.8693 72.0106 28.7273 72.3467 28.4432C72.6829 28.1544 72.9362 27.7614 73.1067 27.2642C73.2819 26.767 73.3695 26.2012 73.3695 25.5668C73.3695 24.9323 73.2819 24.3665 73.1067 23.8693C72.9362 23.3722 72.6829 22.9792 72.3467 22.6903C72.0106 22.4015 71.5915 22.2571 71.0896 22.2571C70.583 22.2571 70.1569 22.4015 69.8112 22.6903C69.4703 22.9792 69.2123 23.3722 69.0371 23.8693C68.8666 24.3665 68.7814 24.9323 68.7814 25.5668C68.7814 26.2012 68.8666 26.767 69.0371 27.2642C69.2123 27.7614 69.4703 28.1544 69.8112 28.4432C70.1569 28.7273 70.583 28.8693 71.0896 28.8693ZM77.7553 31V29.196L83.0962 22.5838V22.5057H77.9399V20.0909H86.7396V22.0582L81.7254 28.5071V28.5852H86.9243V31H77.7553ZM90.5058 35.0909C90.1222 35.0909 89.7624 35.0601 89.4262 34.9986C89.0948 34.9418 88.8201 34.8684 88.6023 34.7784L89.2842 32.5199C89.6393 32.6288 89.9589 32.688 90.243 32.6974C90.5318 32.7069 90.7804 32.6406 90.9887 32.4986C91.2018 32.3565 91.3746 32.1151 91.5072 31.7741L91.6847 31.3125L87.7714 20.0909H90.9532L93.2117 28.1023H93.3254L95.6052 20.0909H98.8083L94.5683 32.179C94.3647 32.7661 94.0877 33.2775 93.7373 33.7131C93.3916 34.1534 92.9537 34.492 92.4234 34.7287C91.8931 34.9702 91.2539 35.0909 90.5058 35.0909ZM111.98 16.4545V31H109.323L102.995 21.8452H102.889V31H99.8134V16.4545H102.512L108.791 25.6023H108.919V16.4545H111.98ZM118.835 31.2131C117.713 31.2131 116.747 30.9858 115.938 30.5312C115.133 30.072 114.512 29.4233 114.077 28.5852C113.641 27.7424 113.423 26.7457 113.423 25.5952C113.423 24.473 113.641 23.4882 114.077 22.6406C114.512 21.7931 115.125 21.1326 115.916 20.6591C116.712 20.1856 117.644 19.9489 118.714 19.9489C119.434 19.9489 120.104 20.0649 120.724 20.2969C121.349 20.5241 121.894 20.8674 122.358 21.3267C122.827 21.786 123.191 22.3636 123.452 23.0597C123.712 23.7509 123.842 24.5606 123.842 25.4886V26.3196H114.631V24.4446H120.994C120.994 24.009 120.9 23.6231 120.71 23.2869C120.521 22.9508 120.258 22.688 119.922 22.4986C119.59 22.3045 119.205 22.2074 118.764 22.2074C118.305 22.2074 117.898 22.3139 117.543 22.527C117.192 22.7353 116.918 23.017 116.719 23.3722C116.52 23.7225 116.418 24.1132 116.413 24.544V26.3267C116.413 26.8665 116.513 27.3329 116.712 27.7259C116.915 28.1188 117.202 28.4219 117.571 28.6349C117.94 28.848 118.378 28.9545 118.885 28.9545C119.221 28.9545 119.529 28.9072 119.808 28.8125C120.088 28.7178 120.327 28.5758 120.526 28.3864C120.724 28.197 120.876 27.965 120.98 27.6903L123.778 27.875C123.636 28.5473 123.345 29.1345 122.905 29.6364C122.469 30.1335 121.906 30.5218 121.214 30.8011C120.528 31.0758 119.735 31.2131 118.835 31.2131ZM134.293 23.2017L131.524 23.3722C131.476 23.1354 131.374 22.9223 131.218 22.733C131.062 22.5388 130.856 22.3849 130.6 22.2713C130.349 22.1529 130.049 22.0938 129.698 22.0938C129.23 22.0938 128.834 22.1932 128.512 22.392C128.19 22.5862 128.029 22.8466 128.029 23.1733C128.029 23.4337 128.133 23.6539 128.342 23.8338C128.55 24.0137 128.908 24.1581 129.414 24.267L131.389 24.6648C132.449 24.8826 133.24 25.233 133.761 25.7159C134.282 26.1989 134.542 26.8333 134.542 27.6193C134.542 28.3343 134.331 28.9616 133.91 29.5014C133.493 30.0412 132.92 30.4626 132.191 30.7656C131.467 31.0639 130.631 31.2131 129.684 31.2131C128.24 31.2131 127.089 30.9124 126.232 30.3111C125.38 29.705 124.881 28.8812 124.734 27.8395L127.71 27.6832C127.8 28.1236 128.017 28.4598 128.363 28.6918C128.709 28.919 129.151 29.0327 129.691 29.0327C130.221 29.0327 130.648 28.9309 130.97 28.7273C131.296 28.5189 131.462 28.2514 131.467 27.9247C131.462 27.6501 131.346 27.4252 131.119 27.25C130.891 27.0701 130.541 26.9328 130.068 26.8381L128.178 26.4616C127.113 26.2486 126.32 25.8793 125.799 25.3537C125.283 24.8281 125.025 24.1581 125.025 23.3438C125.025 22.643 125.214 22.0393 125.593 21.5327C125.977 21.026 126.514 20.6354 127.205 20.3608C127.901 20.0862 128.716 19.9489 129.649 19.9489C131.026 19.9489 132.111 20.2401 132.901 20.8224C133.697 21.4048 134.161 22.1979 134.293 23.2017ZM141.65 20.0909V22.3636H135.08V20.0909H141.65ZM136.572 17.4773H139.597V27.6477C139.597 27.9271 139.64 28.1449 139.725 28.3011C139.81 28.4527 139.929 28.5592 140.08 28.6207C140.236 28.6823 140.416 28.7131 140.62 28.7131C140.762 28.7131 140.904 28.7012 141.046 28.6776C141.188 28.6491 141.297 28.6278 141.373 28.6136L141.849 30.8651C141.697 30.9124 141.484 30.9669 141.209 31.0284C140.935 31.0947 140.601 31.1349 140.208 31.1491C139.479 31.1776 138.84 31.0805 138.29 30.858C137.746 30.6354 137.322 30.2898 137.019 29.821C136.716 29.3523 136.567 28.7604 136.572 28.0455V17.4773Z" fill="#0A0A0A"/>
<path d="M26.2617 19.6516V23.2368H29.8469L35.5736 17.51L40.5004 22.4367V12.3776C40.5004 10.5208 38.9795 9 37.1228 9H27.0637L31.9904 13.9268L26.2636 19.6535L26.2617 19.6516Z" fill="#0A0A0A"/>
<path d="M20.1536 23.2387H23.7387V19.6535L18.0119 13.9268L22.9387 9H12.8795C11.0228 9 9.50195 10.5208 9.50195 12.3776V22.4367L14.4287 17.51L20.1555 23.2368L20.1536 23.2387Z" fill="#0A0A0A"/>
<path d="M29.8469 25.7617H26.2617V29.3469L31.9885 35.0736L27.0618 40.0004H37.1209C38.9795 40.0004 40.4985 38.4795 40.4985 36.6228V26.5637L35.5718 31.4904L29.845 25.7636L29.8469 25.7617Z" fill="#0A0A0A"/>
<path d="M23.7387 29.3469V25.7617H20.1535L14.4267 31.4885L9.5 26.5618V36.6209C9.5 38.4795 11.0209 39.9985 12.8776 39.9985H22.9367L18.01 35.0717L23.7368 29.345L23.7387 29.3469Z" fill="#0A0A0A"/>
</svg>
